# xmcd CD database file
# Copyright (C) 1993-1998 Ti Kan
#
# Track frame offsets:
#	150
#	18440
#	39067
#	57240
#	72402
#	90082
#	111225
#	131845
#	147547
#	163957
#	186527
#	211332
#	233055
#
# Disc length: 3390 seconds
#
# Revision: 1
# Processed by: cddbd v1.4b41PL1 Copyright (c) Steve Scherf et al.
# Submitted via: CDValet v3.31 - Copyright (c) 1997 Greg Leichner
#
DISCID=ba0d3c0d
DTITLE=Beate Ling-Zappel - Herztöne
DYEAR=1900
DGENRE=
TTITLE0=Neues Leben will in Dein Herz
TTITLE1=Du hörst mir zu
TTITLE2=Es riecht nach Dir
TTITLE3=Will bei Dir zur Schule gehn
TTITLE4=Gesunde brauchen keinen Arzt
TTITLE5=Wortspreu
TTITLE6=Am Ende der Welt
TTITLE7=Das Leben lacht
TTITLE8=Himmel auf Erden
TTITLE9=Da zieht ein neuer Tag herauf
TTITLE10=Kreuzzeichen
TTITLE11=Nur einen Tag
TTITLE12=Psalm Zwoiaviarzig
EXTD=
EXTT0=
EXTT1=
EXTT2=
EXTT3=
EXTT4=
EXTT5=
EXTT6=
EXTT7=
EXTT8=
EXTT9=
EXTT10=
EXTT11=
EXTT12=
PLAYORDER=
